<mxfile host="www.draw.io" modified="2019-10-30T02:02:39.423Z" agent="Mozilla/5.0 (Windows NT 10.0; Win64; x64) AppleWebKit/537.36 (KHTML, like Gecko) Chrome/77.0.3865.120 Safari/537.36" etag="Ba8ukdAZfp6WchlQYlRu" version="12.1.8" type="github" pages="1">
  <diagram id="RCSqsCl_UlnlOMIe7hOC" name="Page-1">
    <mxGraphModel dx="728" dy="740" grid="1" gridSize="10" guides="1" tooltips="1" connect="1" arrows="1" fold="1" page="1" pageScale="1" pageWidth="850" pageHeight="1100" math="0" shadow="0">
      <root>
        <mxCell id="0"/>
        <mxCell id="1" parent="0"/>
        <mxCell id="8Fv7Tn2c3ci1tTQjPgPF-1" value="&lt;&lt;interface&gt;&gt;&#xa;Buitton&#xa;" style="swimlane;fontStyle=1;align=center;verticalAlign=top;childLayout=stackLayout;horizontal=1;startSize=40;horizontalStack=0;resizeParent=1;resizeParentMax=0;resizeLast=0;collapsible=1;marginBottom=0;" vertex="1" parent="1">
          <mxGeometry x="260" y="165.5" width="140" height="74" as="geometry"/>
        </mxCell>
        <mxCell id="8Fv7Tn2c3ci1tTQjPgPF-3" value="" style="line;strokeWidth=1;fillColor=none;align=left;verticalAlign=middle;spacingTop=-1;spacingLeft=3;spacingRight=3;rotatable=0;labelPosition=right;points=[];portConstraint=eastwest;" vertex="1" parent="8Fv7Tn2c3ci1tTQjPgPF-1">
          <mxGeometry y="40" width="140" height="8" as="geometry"/>
        </mxCell>
        <mxCell id="8Fv7Tn2c3ci1tTQjPgPF-4" value="doButtonThing() : boolean" style="text;strokeColor=none;fillColor=none;align=left;verticalAlign=top;spacingLeft=4;spacingRight=4;overflow=hidden;rotatable=0;points=[[0,0.5],[1,0.5]];portConstraint=eastwest;" vertex="1" parent="8Fv7Tn2c3ci1tTQjPgPF-1">
          <mxGeometry y="48" width="140" height="26" as="geometry"/>
        </mxCell>
        <mxCell id="8Fv7Tn2c3ci1tTQjPgPF-24" style="edgeStyle=orthogonalEdgeStyle;rounded=0;orthogonalLoop=1;jettySize=auto;html=1;entryX=0.575;entryY=1;entryDx=0;entryDy=0;entryPerimeter=0;dashed=1;" edge="1" parent="1" source="8Fv7Tn2c3ci1tTQjPgPF-8" target="8Fv7Tn2c3ci1tTQjPgPF-4">
          <mxGeometry relative="1" as="geometry"/>
        </mxCell>
        <mxCell id="8Fv7Tn2c3ci1tTQjPgPF-75" style="edgeStyle=orthogonalEdgeStyle;rounded=0;orthogonalLoop=1;jettySize=auto;html=1;entryX=1.006;entryY=0.409;entryDx=0;entryDy=0;entryPerimeter=0;dashed=1;" edge="1" parent="1" source="8Fv7Tn2c3ci1tTQjPgPF-8" target="8Fv7Tn2c3ci1tTQjPgPF-44">
          <mxGeometry relative="1" as="geometry"/>
        </mxCell>
        <mxCell id="8Fv7Tn2c3ci1tTQjPgPF-8" value="Button" style="swimlane;fontStyle=1;align=center;verticalAlign=top;childLayout=stackLayout;horizontal=1;startSize=44;horizontalStack=0;resizeParent=1;resizeParentMax=0;resizeLast=0;collapsible=1;marginBottom=0;" vertex="1" parent="1">
          <mxGeometry x="260" y="285.5" width="130" height="104" as="geometry"/>
        </mxCell>
        <mxCell id="8Fv7Tn2c3ci1tTQjPgPF-9" value="- command: Command" style="text;strokeColor=none;fillColor=none;align=left;verticalAlign=top;spacingLeft=4;spacingRight=4;overflow=hidden;rotatable=0;points=[[0,0.5],[1,0.5]];portConstraint=eastwest;" vertex="1" parent="8Fv7Tn2c3ci1tTQjPgPF-8">
          <mxGeometry y="44" width="130" height="26" as="geometry"/>
        </mxCell>
        <mxCell id="8Fv7Tn2c3ci1tTQjPgPF-10" value="" style="line;strokeWidth=1;fillColor=none;align=left;verticalAlign=middle;spacingTop=-1;spacingLeft=3;spacingRight=3;rotatable=0;labelPosition=right;points=[];portConstraint=eastwest;" vertex="1" parent="8Fv7Tn2c3ci1tTQjPgPF-8">
          <mxGeometry y="70" width="130" height="8" as="geometry"/>
        </mxCell>
        <mxCell id="8Fv7Tn2c3ci1tTQjPgPF-11" value="+doThing() : boolean" style="text;strokeColor=none;fillColor=none;align=left;verticalAlign=top;spacingLeft=4;spacingRight=4;overflow=hidden;rotatable=0;points=[[0,0.5],[1,0.5]];portConstraint=eastwest;" vertex="1" parent="8Fv7Tn2c3ci1tTQjPgPF-8">
          <mxGeometry y="78" width="130" height="26" as="geometry"/>
        </mxCell>
        <mxCell id="8Fv7Tn2c3ci1tTQjPgPF-12" value="&lt;&lt;interface&gt;&gt;&#xa;Winddow Factory&#xa;" style="swimlane;fontStyle=1;align=center;verticalAlign=top;childLayout=stackLayout;horizontal=1;startSize=73;horizontalStack=0;resizeParent=1;resizeParentMax=0;resizeLast=0;collapsible=1;marginBottom=0;" vertex="1" parent="1">
          <mxGeometry y="40" width="160" height="159" as="geometry"/>
        </mxCell>
        <mxCell id="8Fv7Tn2c3ci1tTQjPgPF-13" value="+ creatWindow() : Window" style="text;strokeColor=none;fillColor=none;align=left;verticalAlign=top;spacingLeft=4;spacingRight=4;overflow=hidden;rotatable=0;points=[[0,0.5],[1,0.5]];portConstraint=eastwest;" vertex="1" parent="8Fv7Tn2c3ci1tTQjPgPF-12">
          <mxGeometry y="73" width="160" height="26" as="geometry"/>
        </mxCell>
        <mxCell id="8Fv7Tn2c3ci1tTQjPgPF-20" value="+ createButton(Command) : ButtonÂ " style="text;strokeColor=none;fillColor=none;align=left;verticalAlign=top;spacingLeft=4;spacingRight=4;overflow=hidden;rotatable=0;points=[[0,0.5],[1,0.5]];portConstraint=eastwest;" vertex="1" parent="8Fv7Tn2c3ci1tTQjPgPF-12">
          <mxGeometry y="99" width="160" height="26" as="geometry"/>
        </mxCell>
        <mxCell id="8Fv7Tn2c3ci1tTQjPgPF-21" value="+ CreateMenu((Button[]) : Menu" style="text;strokeColor=none;fillColor=none;align=left;verticalAlign=top;spacingLeft=4;spacingRight=4;overflow=hidden;rotatable=0;points=[[0,0.5],[1,0.5]];portConstraint=eastwest;" vertex="1" parent="8Fv7Tn2c3ci1tTQjPgPF-12">
          <mxGeometry y="125" width="160" height="26" as="geometry"/>
        </mxCell>
        <mxCell id="8Fv7Tn2c3ci1tTQjPgPF-14" value="" style="line;strokeWidth=1;fillColor=none;align=left;verticalAlign=middle;spacingTop=-1;spacingLeft=3;spacingRight=3;rotatable=0;labelPosition=right;points=[];portConstraint=eastwest;" vertex="1" parent="8Fv7Tn2c3ci1tTQjPgPF-12">
          <mxGeometry y="151" width="160" height="8" as="geometry"/>
        </mxCell>
        <mxCell id="8Fv7Tn2c3ci1tTQjPgPF-67" style="edgeStyle=orthogonalEdgeStyle;rounded=0;orthogonalLoop=1;jettySize=auto;html=1;entryX=1;entryY=0.5;entryDx=0;entryDy=0;dashed=1;" edge="1" parent="1" source="8Fv7Tn2c3ci1tTQjPgPF-16" target="8Fv7Tn2c3ci1tTQjPgPF-54">
          <mxGeometry relative="1" as="geometry"/>
        </mxCell>
        <mxCell id="8Fv7Tn2c3ci1tTQjPgPF-16" value="DeleteCommand" style="swimlane;fontStyle=1;align=center;verticalAlign=top;childLayout=stackLayout;horizontal=1;startSize=26;horizontalStack=0;resizeParent=1;resizeParentMax=0;resizeLast=0;collapsible=1;marginBottom=0;" vertex="1" parent="1">
          <mxGeometry x="510" y="100" width="160" height="56" as="geometry"/>
        </mxCell>
        <mxCell id="8Fv7Tn2c3ci1tTQjPgPF-18" value="" style="line;strokeWidth=1;fillColor=none;align=left;verticalAlign=middle;spacingTop=-1;spacingLeft=3;spacingRight=3;rotatable=0;labelPosition=right;points=[];portConstraint=eastwest;" vertex="1" parent="8Fv7Tn2c3ci1tTQjPgPF-16">
          <mxGeometry y="26" width="160" height="4" as="geometry"/>
        </mxCell>
        <mxCell id="8Fv7Tn2c3ci1tTQjPgPF-19" value="+ execute()boolean" style="text;strokeColor=none;fillColor=none;align=left;verticalAlign=top;spacingLeft=4;spacingRight=4;overflow=hidden;rotatable=0;points=[[0,0.5],[1,0.5]];portConstraint=eastwest;" vertex="1" parent="8Fv7Tn2c3ci1tTQjPgPF-16">
          <mxGeometry y="30" width="160" height="26" as="geometry"/>
        </mxCell>
        <mxCell id="8Fv7Tn2c3ci1tTQjPgPF-66" style="edgeStyle=orthogonalEdgeStyle;rounded=0;orthogonalLoop=1;jettySize=auto;html=1;entryX=1;entryY=0.5;entryDx=0;entryDy=0;dashed=1;" edge="1" parent="1" source="8Fv7Tn2c3ci1tTQjPgPF-25" target="8Fv7Tn2c3ci1tTQjPgPF-54">
          <mxGeometry relative="1" as="geometry"/>
        </mxCell>
        <mxCell id="8Fv7Tn2c3ci1tTQjPgPF-25" value="OpenCommand" style="swimlane;fontStyle=1;align=center;verticalAlign=top;childLayout=stackLayout;horizontal=1;startSize=26;horizontalStack=0;resizeParent=1;resizeParentMax=0;resizeLast=0;collapsible=1;marginBottom=0;" vertex="1" parent="1">
          <mxGeometry x="510" y="229" width="160" height="60" as="geometry"/>
        </mxCell>
        <mxCell id="8Fv7Tn2c3ci1tTQjPgPF-26" value="" style="line;strokeWidth=1;fillColor=none;align=left;verticalAlign=middle;spacingTop=-1;spacingLeft=3;spacingRight=3;rotatable=0;labelPosition=right;points=[];portConstraint=eastwest;" vertex="1" parent="8Fv7Tn2c3ci1tTQjPgPF-25">
          <mxGeometry y="26" width="160" height="8" as="geometry"/>
        </mxCell>
        <mxCell id="8Fv7Tn2c3ci1tTQjPgPF-27" value="+ execute()boolean" style="text;strokeColor=none;fillColor=none;align=left;verticalAlign=top;spacingLeft=4;spacingRight=4;overflow=hidden;rotatable=0;points=[[0,0.5],[1,0.5]];portConstraint=eastwest;" vertex="1" parent="8Fv7Tn2c3ci1tTQjPgPF-25">
          <mxGeometry y="34" width="160" height="26" as="geometry"/>
        </mxCell>
        <mxCell id="8Fv7Tn2c3ci1tTQjPgPF-63" style="edgeStyle=orthogonalEdgeStyle;rounded=0;orthogonalLoop=1;jettySize=auto;html=1;entryX=1;entryY=0.5;entryDx=0;entryDy=0;dashed=1;" edge="1" parent="1" source="8Fv7Tn2c3ci1tTQjPgPF-28" target="8Fv7Tn2c3ci1tTQjPgPF-54">
          <mxGeometry relative="1" as="geometry"/>
        </mxCell>
        <mxCell id="8Fv7Tn2c3ci1tTQjPgPF-28" value="CloseCommand" style="swimlane;fontStyle=1;align=center;verticalAlign=top;childLayout=stackLayout;horizontal=1;startSize=26;horizontalStack=0;resizeParent=1;resizeParentMax=0;resizeLast=0;collapsible=1;marginBottom=0;" vertex="1" parent="1">
          <mxGeometry x="510" y="330.5" width="160" height="60" as="geometry"/>
        </mxCell>
        <mxCell id="8Fv7Tn2c3ci1tTQjPgPF-29" value="" style="line;strokeWidth=1;fillColor=none;align=left;verticalAlign=middle;spacingTop=-1;spacingLeft=3;spacingRight=3;rotatable=0;labelPosition=right;points=[];portConstraint=eastwest;" vertex="1" parent="8Fv7Tn2c3ci1tTQjPgPF-28">
          <mxGeometry y="26" width="160" height="8" as="geometry"/>
        </mxCell>
        <mxCell id="8Fv7Tn2c3ci1tTQjPgPF-30" value="+ execute()boolean" style="text;strokeColor=none;fillColor=none;align=left;verticalAlign=top;spacingLeft=4;spacingRight=4;overflow=hidden;rotatable=0;points=[[0,0.5],[1,0.5]];portConstraint=eastwest;" vertex="1" parent="8Fv7Tn2c3ci1tTQjPgPF-28">
          <mxGeometry y="34" width="160" height="26" as="geometry"/>
        </mxCell>
        <mxCell id="8Fv7Tn2c3ci1tTQjPgPF-64" style="edgeStyle=orthogonalEdgeStyle;rounded=0;orthogonalLoop=1;jettySize=auto;html=1;entryX=1;entryY=0.5;entryDx=0;entryDy=0;dashed=1;" edge="1" parent="1" source="8Fv7Tn2c3ci1tTQjPgPF-31" target="8Fv7Tn2c3ci1tTQjPgPF-54">
          <mxGeometry relative="1" as="geometry"/>
        </mxCell>
        <mxCell id="8Fv7Tn2c3ci1tTQjPgPF-31" value="SaveCommand" style="swimlane;fontStyle=1;align=center;verticalAlign=top;childLayout=stackLayout;horizontal=1;startSize=26;horizontalStack=0;resizeParent=1;resizeParentMax=0;resizeLast=0;collapsible=1;marginBottom=0;" vertex="1" parent="1">
          <mxGeometry x="520" y="440" width="160" height="60" as="geometry"/>
        </mxCell>
        <mxCell id="8Fv7Tn2c3ci1tTQjPgPF-32" value="" style="line;strokeWidth=1;fillColor=none;align=left;verticalAlign=middle;spacingTop=-1;spacingLeft=3;spacingRight=3;rotatable=0;labelPosition=right;points=[];portConstraint=eastwest;" vertex="1" parent="8Fv7Tn2c3ci1tTQjPgPF-31">
          <mxGeometry y="26" width="160" height="8" as="geometry"/>
        </mxCell>
        <mxCell id="8Fv7Tn2c3ci1tTQjPgPF-33" value="+ execute()boolean" style="text;strokeColor=none;fillColor=none;align=left;verticalAlign=top;spacingLeft=4;spacingRight=4;overflow=hidden;rotatable=0;points=[[0,0.5],[1,0.5]];portConstraint=eastwest;" vertex="1" parent="8Fv7Tn2c3ci1tTQjPgPF-31">
          <mxGeometry y="34" width="160" height="26" as="geometry"/>
        </mxCell>
        <mxCell id="8Fv7Tn2c3ci1tTQjPgPF-50" style="edgeStyle=orthogonalEdgeStyle;rounded=0;orthogonalLoop=1;jettySize=auto;html=1;entryX=0.5;entryY=1;entryDx=0;entryDy=0;dashed=1;" edge="1" parent="1" source="8Fv7Tn2c3ci1tTQjPgPF-44" target="8Fv7Tn2c3ci1tTQjPgPF-12">
          <mxGeometry relative="1" as="geometry"/>
        </mxCell>
        <mxCell id="8Fv7Tn2c3ci1tTQjPgPF-44" value="WindowFactory" style="swimlane;fontStyle=1;align=center;verticalAlign=top;childLayout=stackLayout;horizontal=1;startSize=73;horizontalStack=0;resizeParent=1;resizeParentMax=0;resizeLast=0;collapsible=1;marginBottom=0;" vertex="1" parent="1">
          <mxGeometry x="10" y="222" width="160" height="159" as="geometry"/>
        </mxCell>
        <mxCell id="8Fv7Tn2c3ci1tTQjPgPF-45" value="+ creatWindow() : Window" style="text;strokeColor=none;fillColor=none;align=left;verticalAlign=top;spacingLeft=4;spacingRight=4;overflow=hidden;rotatable=0;points=[[0,0.5],[1,0.5]];portConstraint=eastwest;" vertex="1" parent="8Fv7Tn2c3ci1tTQjPgPF-44">
          <mxGeometry y="73" width="160" height="26" as="geometry"/>
        </mxCell>
        <mxCell id="8Fv7Tn2c3ci1tTQjPgPF-46" value="+ createButton(Command) : ButtonÂ " style="text;strokeColor=none;fillColor=none;align=left;verticalAlign=top;spacingLeft=4;spacingRight=4;overflow=hidden;rotatable=0;points=[[0,0.5],[1,0.5]];portConstraint=eastwest;" vertex="1" parent="8Fv7Tn2c3ci1tTQjPgPF-44">
          <mxGeometry y="99" width="160" height="26" as="geometry"/>
        </mxCell>
        <mxCell id="8Fv7Tn2c3ci1tTQjPgPF-47" value="+ CreateMenu((Button[]) : Menu" style="text;strokeColor=none;fillColor=none;align=left;verticalAlign=top;spacingLeft=4;spacingRight=4;overflow=hidden;rotatable=0;points=[[0,0.5],[1,0.5]];portConstraint=eastwest;" vertex="1" parent="8Fv7Tn2c3ci1tTQjPgPF-44">
          <mxGeometry y="125" width="160" height="26" as="geometry"/>
        </mxCell>
        <mxCell id="8Fv7Tn2c3ci1tTQjPgPF-48" value="" style="line;strokeWidth=1;fillColor=none;align=left;verticalAlign=middle;spacingTop=-1;spacingLeft=3;spacingRight=3;rotatable=0;labelPosition=right;points=[];portConstraint=eastwest;" vertex="1" parent="8Fv7Tn2c3ci1tTQjPgPF-44">
          <mxGeometry y="151" width="160" height="8" as="geometry"/>
        </mxCell>
        <mxCell id="8Fv7Tn2c3ci1tTQjPgPF-51" value="NewCommand" style="swimlane;fontStyle=1;align=center;verticalAlign=top;childLayout=stackLayout;horizontal=1;startSize=26;horizontalStack=0;resizeParent=1;resizeParentMax=0;resizeLast=0;collapsible=1;marginBottom=0;" vertex="1" parent="1">
          <mxGeometry x="690" y="229" width="160" height="60" as="geometry"/>
        </mxCell>
        <mxCell id="8Fv7Tn2c3ci1tTQjPgPF-52" value="" style="line;strokeWidth=1;fillColor=none;align=left;verticalAlign=middle;spacingTop=-1;spacingLeft=3;spacingRight=3;rotatable=0;labelPosition=right;points=[];portConstraint=eastwest;" vertex="1" parent="8Fv7Tn2c3ci1tTQjPgPF-51">
          <mxGeometry y="26" width="160" height="8" as="geometry"/>
        </mxCell>
        <mxCell id="8Fv7Tn2c3ci1tTQjPgPF-53" value="+ execute()boolean" style="text;strokeColor=none;fillColor=none;align=left;verticalAlign=top;spacingLeft=4;spacingRight=4;overflow=hidden;rotatable=0;points=[[0,0.5],[1,0.5]];portConstraint=eastwest;" vertex="1" parent="8Fv7Tn2c3ci1tTQjPgPF-51">
          <mxGeometry y="34" width="160" height="26" as="geometry"/>
        </mxCell>
        <mxCell id="8Fv7Tn2c3ci1tTQjPgPF-74" style="edgeStyle=orthogonalEdgeStyle;rounded=0;orthogonalLoop=1;jettySize=auto;html=1;entryX=1;entryY=0.5;entryDx=0;entryDy=0;dashed=1;startArrow=diamondThin;startFill=1;" edge="1" parent="1" source="8Fv7Tn2c3ci1tTQjPgPF-54" target="8Fv7Tn2c3ci1tTQjPgPF-60">
          <mxGeometry relative="1" as="geometry">
            <Array as="points">
              <mxPoint x="465" y="146"/>
              <mxPoint x="465" y="300"/>
              <mxPoint x="485" y="300"/>
              <mxPoint x="485" y="565"/>
              <mxPoint x="410" y="565"/>
              <mxPoint x="410" y="581"/>
            </Array>
          </mxGeometry>
        </mxCell>
        <mxCell id="8Fv7Tn2c3ci1tTQjPgPF-54" value="&lt;&lt;interface&gt;&gt;&#xa;ButtonCommand" style="swimlane;fontStyle=1;align=center;verticalAlign=top;childLayout=stackLayout;horizontal=1;startSize=40;horizontalStack=0;resizeParent=1;resizeParentMax=0;resizeLast=0;collapsible=1;marginBottom=0;" vertex="1" parent="1">
          <mxGeometry x="260" y="68.5" width="140" height="74" as="geometry"/>
        </mxCell>
        <mxCell id="8Fv7Tn2c3ci1tTQjPgPF-55" value="" style="line;strokeWidth=1;fillColor=none;align=left;verticalAlign=middle;spacingTop=-1;spacingLeft=3;spacingRight=3;rotatable=0;labelPosition=right;points=[];portConstraint=eastwest;" vertex="1" parent="8Fv7Tn2c3ci1tTQjPgPF-54">
          <mxGeometry y="40" width="140" height="8" as="geometry"/>
        </mxCell>
        <mxCell id="8Fv7Tn2c3ci1tTQjPgPF-56" value="+ execute() : boolean" style="text;strokeColor=none;fillColor=none;align=left;verticalAlign=top;spacingLeft=4;spacingRight=4;overflow=hidden;rotatable=0;points=[[0,0.5],[1,0.5]];portConstraint=eastwest;" vertex="1" parent="8Fv7Tn2c3ci1tTQjPgPF-54">
          <mxGeometry y="48" width="140" height="26" as="geometry"/>
        </mxCell>
        <mxCell id="8Fv7Tn2c3ci1tTQjPgPF-73" style="edgeStyle=orthogonalEdgeStyle;rounded=0;orthogonalLoop=1;jettySize=auto;html=1;entryX=0.488;entryY=1.019;entryDx=0;entryDy=0;entryPerimeter=0;dashed=1;" edge="1" parent="1" source="8Fv7Tn2c3ci1tTQjPgPF-59" target="8Fv7Tn2c3ci1tTQjPgPF-11">
          <mxGeometry relative="1" as="geometry">
            <mxPoint x="320" y="490" as="sourcePoint"/>
          </mxGeometry>
        </mxCell>
        <mxCell id="8Fv7Tn2c3ci1tTQjPgPF-82" value="" style="edgeStyle=orthogonalEdgeStyle;rounded=0;orthogonalLoop=1;jettySize=auto;html=1;dashed=1;startArrow=diamondThin;startFill=1;" edge="1" parent="1" source="8Fv7Tn2c3ci1tTQjPgPF-59" target="8Fv7Tn2c3ci1tTQjPgPF-78">
          <mxGeometry relative="1" as="geometry"/>
        </mxCell>
        <mxCell id="8Fv7Tn2c3ci1tTQjPgPF-59" value="ButtonImplLight" style="swimlane;fontStyle=1;align=center;verticalAlign=top;childLayout=stackLayout;horizontal=1;startSize=44;horizontalStack=0;resizeParent=1;resizeParentMax=0;resizeLast=0;collapsible=1;marginBottom=0;" vertex="1" parent="1">
          <mxGeometry x="240" y="498" width="140" height="168" as="geometry"/>
        </mxCell>
        <mxCell id="8Fv7Tn2c3ci1tTQjPgPF-62" value="+doThing() : boolean" style="text;strokeColor=none;fillColor=none;align=left;verticalAlign=top;spacingLeft=4;spacingRight=4;overflow=hidden;rotatable=0;points=[[0,0.5],[1,0.5]];portConstraint=eastwest;" vertex="1" parent="8Fv7Tn2c3ci1tTQjPgPF-59">
          <mxGeometry y="44" width="140" height="26" as="geometry"/>
        </mxCell>
        <mxCell id="8Fv7Tn2c3ci1tTQjPgPF-60" value="+getName() : String" style="text;strokeColor=none;fillColor=none;align=left;verticalAlign=top;spacingLeft=4;spacingRight=4;overflow=hidden;rotatable=0;points=[[0,0.5],[1,0.5]];portConstraint=eastwest;" vertex="1" parent="8Fv7Tn2c3ci1tTQjPgPF-59">
          <mxGeometry y="70" width="140" height="90" as="geometry"/>
        </mxCell>
        <mxCell id="8Fv7Tn2c3ci1tTQjPgPF-61" value="" style="line;strokeWidth=1;fillColor=none;align=left;verticalAlign=middle;spacingTop=-1;spacingLeft=3;spacingRight=3;rotatable=0;labelPosition=right;points=[];portConstraint=eastwest;" vertex="1" parent="8Fv7Tn2c3ci1tTQjPgPF-59">
          <mxGeometry y="160" width="140" height="8" as="geometry"/>
        </mxCell>
        <mxCell id="8Fv7Tn2c3ci1tTQjPgPF-78" value="ButtonImplLight" style="swimlane;fontStyle=1;align=center;verticalAlign=top;childLayout=stackLayout;horizontal=1;startSize=44;horizontalStack=0;resizeParent=1;resizeParentMax=0;resizeLast=0;collapsible=1;marginBottom=0;" vertex="1" parent="1">
          <mxGeometry x="240" y="746" width="140" height="170" as="geometry"/>
        </mxCell>
        <mxCell id="8Fv7Tn2c3ci1tTQjPgPF-87" value="- name : String" style="text;strokeColor=none;fillColor=none;align=left;verticalAlign=top;spacingLeft=4;spacingRight=4;overflow=hidden;rotatable=0;points=[[0,0.5],[1,0.5]];portConstraint=eastwest;" vertex="1" parent="8Fv7Tn2c3ci1tTQjPgPF-78">
          <mxGeometry y="44" width="140" height="22" as="geometry"/>
        </mxCell>
        <mxCell id="8Fv7Tn2c3ci1tTQjPgPF-88" value="- command: Command" style="text;strokeColor=none;fillColor=none;align=left;verticalAlign=top;spacingLeft=4;spacingRight=4;overflow=hidden;rotatable=0;points=[[0,0.5],[1,0.5]];portConstraint=eastwest;" vertex="1" parent="8Fv7Tn2c3ci1tTQjPgPF-78">
          <mxGeometry y="66" width="140" height="22" as="geometry"/>
        </mxCell>
        <mxCell id="8Fv7Tn2c3ci1tTQjPgPF-81" value="" style="line;strokeWidth=1;fillColor=none;align=left;verticalAlign=middle;spacingTop=-1;spacingLeft=3;spacingRight=3;rotatable=0;labelPosition=right;points=[];portConstraint=eastwest;" vertex="1" parent="8Fv7Tn2c3ci1tTQjPgPF-78">
          <mxGeometry y="88" width="140" height="22" as="geometry"/>
        </mxCell>
        <mxCell id="8Fv7Tn2c3ci1tTQjPgPF-83" value="+doThing() : boolean" style="text;strokeColor=none;fillColor=none;align=left;verticalAlign=top;spacingLeft=4;spacingRight=4;overflow=hidden;rotatable=0;points=[[0,0.5],[1,0.5]];portConstraint=eastwest;" vertex="1" parent="8Fv7Tn2c3ci1tTQjPgPF-78">
          <mxGeometry y="110" width="140" height="30" as="geometry"/>
        </mxCell>
        <mxCell id="8Fv7Tn2c3ci1tTQjPgPF-89" value="+ getName() : String" style="text;strokeColor=none;fillColor=none;align=left;verticalAlign=top;spacingLeft=4;spacingRight=4;overflow=hidden;rotatable=0;points=[[0,0.5],[1,0.5]];portConstraint=eastwest;" vertex="1" parent="8Fv7Tn2c3ci1tTQjPgPF-78">
          <mxGeometry y="140" width="140" height="30" as="geometry"/>
        </mxCell>
        <mxCell id="8Fv7Tn2c3ci1tTQjPgPF-72" style="edgeStyle=orthogonalEdgeStyle;rounded=0;orthogonalLoop=1;jettySize=auto;html=1;entryX=0.5;entryY=1.019;entryDx=0;entryDy=0;entryPerimeter=0;dashed=1;" edge="1" parent="1" source="8Fv7Tn2c3ci1tTQjPgPF-68" target="8Fv7Tn2c3ci1tTQjPgPF-11">
          <mxGeometry relative="1" as="geometry"/>
        </mxCell>
        <mxCell id="8Fv7Tn2c3ci1tTQjPgPF-68" value="ButtonImplDark" style="swimlane;fontStyle=1;align=center;verticalAlign=top;childLayout=stackLayout;horizontal=1;startSize=44;horizontalStack=0;resizeParent=1;resizeParentMax=0;resizeLast=0;collapsible=1;marginBottom=0;" vertex="1" parent="1">
          <mxGeometry x="40" y="498" width="160" height="104" as="geometry"/>
        </mxCell>
        <mxCell id="8Fv7Tn2c3ci1tTQjPgPF-69" value="- command: Command" style="text;strokeColor=none;fillColor=none;align=left;verticalAlign=top;spacingLeft=4;spacingRight=4;overflow=hidden;rotatable=0;points=[[0,0.5],[1,0.5]];portConstraint=eastwest;" vertex="1" parent="8Fv7Tn2c3ci1tTQjPgPF-68">
          <mxGeometry y="44" width="160" height="26" as="geometry"/>
        </mxCell>
        <mxCell id="8Fv7Tn2c3ci1tTQjPgPF-70" value="" style="line;strokeWidth=1;fillColor=none;align=left;verticalAlign=middle;spacingTop=-1;spacingLeft=3;spacingRight=3;rotatable=0;labelPosition=right;points=[];portConstraint=eastwest;" vertex="1" parent="8Fv7Tn2c3ci1tTQjPgPF-68">
          <mxGeometry y="70" width="160" height="8" as="geometry"/>
        </mxCell>
        <mxCell id="8Fv7Tn2c3ci1tTQjPgPF-71" value="+doThing() : boolean" style="text;strokeColor=none;fillColor=none;align=left;verticalAlign=top;spacingLeft=4;spacingRight=4;overflow=hidden;rotatable=0;points=[[0,0.5],[1,0.5]];portConstraint=eastwest;" vertex="1" parent="8Fv7Tn2c3ci1tTQjPgPF-68">
          <mxGeometry y="78" width="160" height="26" as="geometry"/>
        </mxCell>
        <mxCell id="8Fv7Tn2c3ci1tTQjPgPF-77" value="concrete classes than implement ButtonCommand" style="text;html=1;resizable=0;points=[];autosize=1;align=left;verticalAlign=top;spacingTop=-4;" vertex="1" parent="1">
          <mxGeometry x="500" y="58.5" width="280" height="20" as="geometry"/>
        </mxCell>
      </root>
    </mxGraphModel>
  </diagram>
</mxfile>
